HIERARCHY
ROOT Hips
{
  OFFSET 0.000000 0.000000 0.000000
  CHANNELS 6 Xposition Yposition Zposition Zrotation Yrotation Xrotation
  JOINT Spine
  {
    OFFSET -0.103929 2.016908 0.069201
    CHANNELS 3 Zrotation Yrotation Xrotation
    JOINT Spine1
    {
      OFFSET 0.040925 2.013020 -0.052834
      CHANNELS 3 Zrotation Yrotation Xrotation
      JOINT Spine2
      {
        OFFSET 0.091899 2.026089 -0.082763
        CHANNELS 3 Zrotation Yrotation Xrotation
        JOINT Neck
        {
          OFFSET -0.028700 1.589775 -0.031135
          CHANNELS 3 Zrotation Yrotation Xrotation
          JOINT Head
          {
            OFFSET 0.040559 1.599987 -0.095354
            CHANNELS 3 Zrotation Yrotation Xrotation
            End Site
            {
              OFFSET 0 0 0
            }
          }
        }
        JOINT LeftShoulder
        {
          OFFSET 3.306406 1.157636 0.011041
          CHANNELS 3 Zrotation Yrotation Xrotation
          JOINT LeftArm
          {
            OFFSET 4.632080 -0.000000 0.000000
            CHANNELS 3 Zrotation Yrotation Xrotation
            JOINT LeftForeArm
            {
              OFFSET 3.419240 -0.000000 -0.000000
              CHANNELS 3 Zrotation Yrotation Xrotation
              JOINT LeftHand
              {
                OFFSET 0.625370 -0.000000 -0.000000
                CHANNELS 3 Zrotation Yrotation Xrotation
                JOINT LeftHandIndex1
                {
                  OFFSET 0.504190 -0.000000 -0.000000
                  CHANNELS 3 Zrotation Yrotation Xrotation
                  End Site
                  {
                    OFFSET 0 0 0
                  }
                }
              }
            }
          }
        }
        JOINT RightShoulder
        {
          OFFSET -3.780807 1.021795 -0.166087
          CHANNELS 3 Zrotation Yrotation Xrotation
          JOINT RightArm
          {
            OFFSET -4.406400 -0.000000 -0.000000
            CHANNELS 3 Zrotation Yrotation Xrotation
            JOINT RightForeArm
            {
              OFFSET -3.446750 -0.000000 0.000000
              CHANNELS 3 Zrotation Yrotation Xrotation
              JOINT RightHand
              {
                OFFSET -0.513674 -0.000000 -0.000000
                CHANNELS 3 Zrotation Yrotation Xrotation
                JOINT RightHandIndex1
                {
                  OFFSET -0.414137 -0.000000 -0.000000
                  CHANNELS 3 Zrotation Yrotation Xrotation
                  End Site
                  {
                    OFFSET 0 0 0
                  }
                }
              }
            }
          }
        }
      }
    }
  }
  JOINT LeftUpLeg
  {
    OFFSET 2.201029 -6.047282 0.000000
    CHANNELS 3 Zrotation Yrotation Xrotation
    JOINT LeftLeg
    {
      OFFSET 2.541540 -6.982830 0.000000
      CHANNELS 3 Zrotation Yrotation Xrotation
      JOINT LeftFoot
      {
        OFFSET 0.059715 -0.164065 1.775819
        CHANNELS 3 Zrotation Yrotation Xrotation
        JOINT LeftToeBase
        {
          OFFSET 0.000000 -0.000000 0.908320
          CHANNELS 3 Zrotation Yrotation Xrotation
          End Site
          {
            OFFSET 0 0 0
          }
        }
      }
    }
  }
  JOINT RightUpLeg
  {
    OFFSET -2.269262 -6.234750 0.000000
    CHANNELS 3 Zrotation Yrotation Xrotation
    JOINT RightLeg
    {
      OFFSET -2.348077 -6.451293 0.000000
      CHANNELS 3 Zrotation Yrotation Xrotation
      JOINT RightFoot
      {
        OFFSET -0.186335 -0.511953 1.685391
        CHANNELS 3 Zrotation Yrotation Xrotation
        JOINT RightToeBase
        {
          OFFSET -0.000000 -0.000000 0.889273
          CHANNELS 3 Zrotation Yrotation Xrotation
          End Site
          {
            OFFSET 0 0 0
          }
        }
      }
    }
  }
}
MOTION
Frames: 16
Frame Time: 0.00833333
8.172140 15.968200 -0.810775 -179.863000 6.948000 -175.363000 -25.217700 -0.012662 -31.021800 0.000000 0.000000 42.500900 1.813580 0.000000 -10.700000 0.000000 0.000000 -62.781700 -4.618390 10.002900 -38.333500 0.000000 0.000000 74.394800 16.587600 0.000000 200.521000 0.000000 0.000000 11.362600 -9.637090 -0.470700 7.176800 0.303147 -0.313395 7.245750 5.757050 -0.298051 3.716640 -6.592730 -3.922430 -4.469460 4.914350 -1.378050 8.715080 -0.000000 -0.000000 0.000000 65.563800 -10.967500 -28.373000 0.000000 0.000000 38.705900 -27.010600 0.000000 -39.356800 0.000000 0.000000 7.125020 -0.000000 -0.000000 0.000000 -52.335300 -18.216300 -42.911800 0.000000 0.000000 25.792200 -42.474900 0.000000 -17.516700 0.000000 0.000000 7.125020
8.133120 16.040500 -1.009940 -181.443000 6.840310 -178.150000 -27.269400 1.375510 -26.353700 0.000000 0.000000 40.511800 1.222430 0.000000 -10.269100 0.000000 0.000000 -62.627000 -4.233130 8.270030 -45.240900 0.000000 0.000000 85.771700 50.919900 0.000000 135.305000 0.000000 0.000000 25.094900 -11.167400 -1.474300 9.665540 -0.396027 -1.631480 8.365240 5.962410 -0.929227 3.873060 -6.886600 -2.729300 -3.430830 4.928710 -0.716102 8.030180 0.000000 -0.000000 0.000000 65.999300 -9.612410 -24.210400 0.000000 0.000000 40.880100 -28.191500 0.000000 -40.404500 0.000000 0.000000 7.125020 0.000000 -0.000000 0.000000 -51.610800 -17.434100 -46.744100 0.000000 0.000000 26.243000 -40.891700 0.000000 -16.079100 0.000000 0.000000 7.125020
8.121950 16.095700 -1.181310 -182.356000 6.018030 -180.208000 -28.386000 2.347430 -22.907800 0.000000 0.000000 39.342800 0.342593 0.000000 -9.968200 0.000000 0.000000 -62.227600 -2.293320 5.379000 -51.286300 0.000000 0.000000 88.202000 25.800100 0.000000 59.405100 0.000000 0.000000 42.092200 -12.167100 -2.466540 11.989000 -0.950382 -2.927590 9.365180 6.057310 -1.523760 4.029900 -6.460270 -1.694240 -3.638110 4.638090 -0.075114 7.824360 -0.000000 -0.000000 0.000000 66.243500 -8.242640 -18.598100 0.000000 0.000000 42.005300 -29.597500 0.000000 -40.533500 0.000000 0.000000 7.125020 -0.000000 -0.000000 0.000000 -50.578900 -17.401700 -50.565200 0.000000 0.000000 26.546400 -40.365400 0.000000 -16.052900 0.000000 0.000000 7.125020
8.139610 16.130100 -1.299500 -182.483000 4.628800 -180.990000 -28.521500 2.624270 -21.404000 0.000000 0.000000 39.156500 -0.466951 0.000000 -9.924930 0.000000 0.000000 -62.717000 0.783555 2.420960 -56.545700 0.000000 0.000000 73.725000 -21.052700 0.000000 -23.254700 0.000000 0.000000 65.583400 -12.595500 -3.405150 13.945800 -1.208690 -4.202820 9.960030 6.180130 -2.097630 3.935240 -6.000820 -0.800086 -3.534100 4.476210 0.458055 7.449240 0.000000 0.000000 0.000000 66.810600 -7.175890 -12.453100 0.000000 0.000000 42.603100 -28.196900 0.000000 -39.212500 0.000000 0.000000 7.125020 0.000000 0.000000 0.000000 -49.585500 -17.463400 -54.586400 0.000000 0.000000 27.070100 -40.816700 0.000000 -16.258300 0.000000 0.000000 7.125020
8.133450 16.163500 -1.469440 -182.269000 4.575170 -181.324000 -28.253900 3.092260 -19.868700 0.000000 0.000000 38.350100 -0.520873 0.000000 -10.304500 0.000000 0.000000 -62.898500 3.996230 1.583020 -60.252900 0.000000 0.000000 57.859900 -10.996100 0.000000 -32.425900 0.000000 0.000000 -6.761540 -12.551500 -4.125190 14.724200 -1.458970 -5.087280 10.419900 5.978370 -2.506280 4.190360 -5.555470 0.110456 -3.404590 4.273910 1.021620 7.160770 0.000000 -0.000000 0.000000 67.732200 -5.344740 -6.350990 0.000000 0.000000 43.381900 -29.195300 0.000000 -38.691500 0.000000 0.000000 7.125020 0.000000 -0.000000 0.000000 -47.381600 -18.106000 -58.088800 0.000000 0.000000 26.217400 -40.864100 0.000000 -17.752100 0.000000 0.000000 7.125020
8.117740 16.202900 -1.662390 -181.988000 4.806290 -181.507000 -28.023600 3.535420 -18.328700 0.000000 0.000000 37.499800 -0.519651 0.000000 -10.951700 0.000000 0.000000 -62.885000 6.161000 2.705820 -62.621800 0.000000 0.000000 40.754300 -12.615200 0.000000 -33.805800 0.000000 0.000000 -14.457100 -12.380800 -4.813120 15.300900 -1.692380 -5.956310 10.705100 5.722860 -2.909040 4.326820 -5.214240 0.885559 -3.810950 4.123900 1.511810 7.126330 -0.000000 0.000000 0.000000 69.296000 -4.058580 -1.428890 0.000000 0.000000 44.322000 -26.541300 0.000000 -43.419800 0.000000 0.000000 7.125020 -0.000000 0.000000 0.000000 -44.739700 -18.155300 -61.398300 0.000000 0.000000 25.313800 -40.121300 0.000000 -19.652200 0.000000 0.000000 7.125020
8.114560 16.241000 -1.882320 -181.354000 4.868540 -181.552000 -27.361300 4.004020 -16.933000 0.000000 0.000000 36.970400 -0.572708 0.000000 -11.790400 0.000000 0.000000 -62.779100 11.390900 3.041540 -65.555400 0.000000 0.000000 28.188400 -12.827600 0.000000 39.626300 0.000000 0.000000 56.720700 -11.917800 -5.508890 15.618900 -1.758740 -6.848340 10.819600 5.481900 -3.329560 4.371310 -4.889550 1.625120 -3.524280 3.899370 1.970820 6.893390 0.000000 0.000000 0.000000 71.396000 -2.584900 2.549420 0.000000 0.000000 47.059200 -30.732300 0.000000 -43.188700 0.000000 0.000000 7.125020 0.000000 0.000000 0.000000 -42.092600 -17.614700 -64.613500 0.000000 0.000000 24.682300 -41.022500 0.000000 -16.616300 0.000000 0.000000 7.125020
8.115660 16.264000 -2.114220 -180.561000 4.665930 -181.529000 -26.573400 4.215380 -15.785900 0.000000 0.000000 36.833700 -0.487469 0.000000 -12.766100 0.000000 0.000000 -62.393900 19.302500 3.257600 -70.093900 0.000000 0.000000 17.528600 -13.943900 0.000000 47.721600 0.000000 0.000000 4.898710 -11.160900 -6.271090 15.711700 -1.756130 -7.817640 10.817500 5.151900 -3.785520 4.357130 -5.021660 2.183620 -2.988170 3.843890 2.297270 6.602100 -0.000000 -0.000000 0.000000 73.533700 -2.167080 6.040450 0.000000 0.000000 49.378500 -32.847100 0.000000 -43.000600 0.000000 0.000000 7.125020 -0.000000 -0.000000 0.000000 -38.978100 -16.956400 -67.717600 0.000000 0.000000 23.803600 -40.886000 0.000000 -16.096800 0.000000 0.000000 7.125020
8.134010 16.283300 -2.375960 -180.208000 3.193450 -182.477000 -26.427300 3.638670 -13.445000 0.000000 0.000000 36.605200 -0.655122 0.000000 -13.688300 0.000000 0.000000 -62.293900 22.077900 3.670290 -73.291000 0.000000 0.000000 15.798200 -2.955580 0.000000 33.135900 0.000000 0.000000 -54.313200 -10.877000 -7.092160 16.491300 -1.881240 -8.805070 11.207800 4.991080 -4.224610 4.489500 -4.707680 2.427940 -3.317610 3.705300 2.464870 6.696060 -0.000000 0.000000 0.000000 75.227000 -3.512100 10.134300 0.000000 0.000000 50.515200 -31.578800 0.000000 -43.182300 0.000000 0.000000 7.125020 -0.000000 0.000000 0.000000 -35.381900 -16.889700 -71.019700 0.000000 0.000000 22.489900 -40.186800 0.000000 -16.513100 0.000000 0.000000 7.125020
8.171440 16.266300 -2.633670 -180.482000 0.697075 -183.238000 -27.180300 2.039950 -11.675100 0.000000 0.000000 36.812000 -0.895366 0.000000 -14.392000 0.000000 0.000000 -61.842700 19.421500 3.708080 -76.556100 0.000000 0.000000 13.548700 0.770066 0.000000 27.290800 0.000000 0.000000 -69.964900 -11.647200 -8.241930 17.443600 -1.739910 -10.503400 11.140000 5.766030 -5.107400 4.424380 -5.548430 3.026520 -2.948320 3.829380 2.829020 6.546780 0.000000 0.000000 0.000000 77.722400 -3.895170 13.504900 0.000000 0.000000 50.813700 -31.485900 0.000000 -43.206400 0.000000 0.000000 7.125020 0.000000 0.000000 0.000000 -32.421300 -15.462500 -72.880400 0.000000 0.000000 21.061000 -38.354900 0.000000 -17.394200 0.000000 0.000000 7.125020
8.214320 16.256600 -2.912520 -180.256000 -1.657690 -184.074000 -27.348400 0.179984 -9.589410 0.000000 0.000000 36.776600 -1.138260 0.000000 -14.698400 0.000000 0.000000 -60.959600 17.263200 4.050660 -79.867200 0.000000 0.000000 18.682900 1.920510 0.000000 10.179600 0.000000 0.000000 -62.181600 -10.465600 -5.928940 17.876100 -1.253480 -11.993500 11.250400 5.832510 -7.644840 4.135260 -4.999260 2.959110 -2.942340 3.642110 2.806930 6.557260 0.000000 -0.000000 0.000000 79.471200 -7.326820 17.178600 0.000000 0.000000 50.890600 -32.068200 0.000000 -42.709700 0.000000 0.000000 7.125020 0.000000 -0.000000 0.000000 -28.168200 -15.594100 -76.354000 0.000000 0.000000 19.662500 -39.235500 0.000000 -16.207700 0.000000 0.000000 7.125020
8.262050 16.279300 -3.192290 -180.174000 -3.500990 -185.460000 -27.622700 -1.618900 -6.944610 0.000000 0.000000 37.001600 -1.183150 0.000000 -14.692700 0.000000 0.000000 -60.605400 14.347400 5.247410 -82.537600 0.000000 0.000000 24.351200 -1.406490 0.000000 4.091030 0.000000 0.000000 -47.933300 -10.907400 -6.110410 18.922000 -0.985365 -12.494400 11.375500 6.537160 -7.972930 4.007970 -5.187220 2.960220 -2.916820 3.620140 2.813170 6.583970 0.000000 0.000000 0.000000 81.614000 -10.478900 19.220100 0.000000 0.000000 51.903800 -33.780500 0.000000 -42.244600 0.000000 0.000000 7.125020 0.000000 0.000000 0.000000 -23.332400 -15.749600 -79.003600 0.000000 0.000000 18.315200 -37.264800 0.000000 -16.962800 0.000000 0.000000 7.125020
8.293060 16.337100 -3.494570 -180.074000 -4.786550 -186.716000 -27.883700 -2.984130 -4.430990 0.000000 0.000000 37.809800 -2.156480 0.000000 -14.339700 0.000000 0.000000 -58.119300 13.746900 6.589520 -85.332200 0.000000 0.000000 30.687000 -2.469860 0.000000 5.348000 0.000000 0.000000 -53.576000 -11.410100 -6.282580 20.044900 -0.678074 -12.924400 11.148900 7.387080 -8.195290 3.477380 -5.421260 3.187760 -2.540040 3.614140 2.975590 6.511290 0.000000 -0.000000 0.000000 83.668300 -12.825900 19.969000 0.000000 0.000000 53.596600 -33.027300 0.000000 -40.685600 0.000000 0.000000 7.125020 0.000000 -0.000000 0.000000 -19.367100 -15.276300 -80.929800 0.000000 0.000000 17.356200 -37.292500 0.000000 -17.033200 0.000000 0.000000 7.125020
8.320410 16.423800 -3.791410 -179.419000 -5.587810 -187.411000 -27.261400 -3.415280 -2.924640 0.000000 0.000000 37.843500 -1.058590 0.000000 -12.111300 0.000000 0.000000 -60.839100 12.528900 8.351570 -87.944800 0.000000 0.000000 36.999200 -4.157010 0.000000 7.353890 0.000000 0.000000 -53.800700 -11.188400 -6.287400 20.056200 -0.288249 -12.885900 11.224200 7.668480 -8.198400 3.602480 -4.892780 3.076880 -3.030220 3.327980 2.933920 6.724160 -0.000000 0.000000 0.000000 85.614100 -15.798400 20.737400 0.000000 0.000000 55.319600 -33.698000 0.000000 -40.980500 0.000000 0.000000 7.125020 -0.000000 0.000000 0.000000 -15.777300 -15.845400 -82.941800 0.000000 0.000000 16.554600 -37.092500 0.000000 -17.194800 0.000000 0.000000 7.125020
8.341370 16.538200 -4.091470 -178.747000 -6.581730 -187.492000 -26.570200 -3.915010 -2.036500 0.000000 0.000000 37.633600 -0.701940 0.000000 -9.024950 0.000000 0.000000 -61.499300 11.173800 9.323340 -90.057200 0.000000 0.000000 42.900000 -3.198840 0.000000 1.065290 0.000000 0.000000 -46.624900 -10.817100 -6.466770 19.424400 0.173270 -12.883200 11.125700 7.851820 -8.167710 3.850850 -4.678790 3.020880 -3.453780 3.244640 2.921800 6.891820 0.000000 -0.000000 0.000000 87.478900 -18.575800 21.150400 0.000000 0.000000 56.639100 -32.956400 0.000000 -41.136100 0.000000 0.000000 7.125020 0.000000 -0.000000 0.000000 -12.660300 -16.665300 -84.676800 0.000000 0.000000 15.940300 -36.636400 0.000000 -17.384000 0.000000 0.000000 7.125020
8.355940 16.701700 -4.398930 -177.524000 -7.928830 -187.580000 -25.257700 -4.576530 -0.936964 0.000000 0.000000 36.889400 -0.497647 0.000000 -5.668400 0.000000 0.000000 -61.700600 12.181800 9.553240 -90.635700 0.000000 0.000000 46.975500 -1.504220 0.000000 1.502950 0.000000 0.000000 -40.426400 -9.961560 -6.881140 18.747200 0.843674 -13.109900 10.984300 8.017130 -8.225710 4.067700 -4.887350 3.007330 -3.516460 3.301190 2.927700 6.944210 -0.000000 0.000000 0.000000 89.247800 -20.613700 20.955300 0.000000 0.000000 57.770100 -32.617700 0.000000 -41.302300 0.000000 0.000000 7.125020 -0.000000 0.000000 0.000000 -11.260300 -17.601600 -85.651100 0.000000 0.000000 15.748200 -36.505300 0.000000 -17.606500 0.000000 0.000000 7.125020
